<svg width="372" height="138" viewBox="0 0 372 138" fill="none" xmlns="http://www.w3.org/2000/svg">
<path d="M258.68 88H250.5V73.75H238.383V88H230.156V53.875H238.383V67.4219H250.5V53.875H258.68V88ZM292.805 71.6406C292.805 74.9688 292.188 77.9141 290.953 80.4766C289.719 83.0391 287.961 85.0156 285.68 86.4062C283.414 87.7812 280.828 88.4688 277.922 88.4688C275.016 88.4688 272.438 87.8047 270.188 86.4766C267.938 85.1328 266.18 83.2188 264.914 80.7344C263.664 78.25 263.008 75.3984 262.945 72.1797V70.2578C262.945 66.9141 263.555 63.9688 264.773 61.4219C266.008 58.8594 267.766 56.8828 270.047 55.4922C272.344 54.1016 274.953 53.4062 277.875 53.4062C280.766 53.4062 283.344 54.0938 285.609 55.4688C287.875 56.8438 289.633 58.8047 290.883 61.3516C292.148 63.8828 292.789 66.7891 292.805 70.0703V71.6406ZM284.438 70.2109C284.438 66.8203 283.867 64.25 282.727 62.5C281.602 60.7344 279.984 59.8516 277.875 59.8516C273.75 59.8516 271.57 62.9453 271.336 69.1328L271.312 71.6406C271.312 74.9844 271.867 77.5547 272.977 79.3516C274.086 81.1484 275.734 82.0469 277.922 82.0469C280 82.0469 281.602 81.1641 282.727 79.3984C283.852 77.6328 284.422 75.0938 284.438 71.7812V70.2109ZM307.852 53.875L315.469 77.6172L323.062 53.875H333.891V88H325.641V80.0312L326.438 63.7188L318.188 88H312.75L304.477 63.6953L305.273 80.0312V88H297.047V53.875H307.852ZM360.305 73.5391H347.367V81.6719H362.648V88H339.141V53.875H362.695V60.2266H347.367V67.4219H360.305V73.5391Z" fill="black"/>
<path d="M172.414 0.000239245H27.5863H10.3484C4.63437 0.000239245 0 2.8375 0 6.33553V76H27.5863H79.3105H120.69H172.414H200V6.33553C200 2.8375 195.366 0 189.652 0L172.414 0.000239245Z" fill="#495D72"/>
<path d="M172.414 138H27.5863H10.3484C4.63438 138 0 135.536 0 132.498V72H27.5863H79.3105H120.69H172.414H200V132.498C200 135.536 195.366 138 189.652 138H172.414V138Z" fill="#495D72"/>
<path d="M186.086 13.6719H92.9824V124.017H186.086V13.6719Z" fill="#28384C"/>
<path d="M148.155 30.9133H113.672C111.768 30.9133 110.223 29.3684 110.223 27.4649C110.223 25.5613 111.768 24.0164 113.672 24.0164H148.155C150.058 24.0164 151.603 25.5613 151.603 27.4649C151.603 29.3684 150.058 30.9133 148.155 30.9133Z" fill="#DD352E"/>
<path d="M172.293 30.9133H161.948C160.044 30.9133 158.499 29.3684 158.499 27.4649C158.499 25.5613 160.044 24.0164 161.948 24.0164H172.293C174.196 24.0164 175.741 25.5613 175.741 27.4649C175.741 29.3684 174.196 30.9133 172.293 30.9133Z" fill="#366DB6"/>
<path d="M172.293 44.7063H137.81C135.906 44.7063 134.361 43.1613 134.361 41.2578C134.361 39.3543 135.906 37.8094 137.81 37.8094H172.293C174.196 37.8094 175.741 39.3543 175.741 41.2578C175.741 43.1613 174.196 44.7063 172.293 44.7063Z" fill="#75348B"/>
<path d="M124.017 44.7063H113.672C111.768 44.7063 110.223 43.1613 110.223 41.2578C110.223 39.3543 111.768 37.8094 113.672 37.8094H124.017C125.92 37.8094 127.465 39.3543 127.465 41.2578C127.465 43.1613 125.92 44.7063 124.017 44.7063Z" fill="#57ABC1"/>
<path d="M148.155 58.4996H113.672C111.768 58.4996 110.223 56.9547 110.223 55.0512C110.223 53.1476 111.768 51.6027 113.672 51.6027H148.155C150.058 51.6027 151.603 53.1476 151.603 55.0512C151.603 56.9547 150.058 58.4996 148.155 58.4996Z" fill="#25AE88"/>
<path d="M172.293 58.4996H161.948C160.044 58.4996 158.499 56.9547 158.499 55.0512C158.499 53.1476 160.044 51.6027 161.948 51.6027H172.293C174.196 51.6027 175.741 53.1476 175.741 55.0512C175.741 56.9547 174.196 58.4996 172.293 58.4996Z" fill="#F76363"/>
<path d="M172.293 72.2926H137.81C135.906 72.2926 134.361 70.7476 134.361 68.8441C134.361 66.9406 135.906 65.3957 137.81 65.3957H172.293C174.196 65.3957 175.741 66.9406 175.741 68.8441C175.741 70.7476 174.196 72.2926 172.293 72.2926Z" fill="#BF5A45"/>
<path d="M124.017 72.2926H113.672C111.768 72.2926 110.223 70.7476 110.223 68.8441C110.223 66.9406 111.768 65.3957 113.672 65.3957H124.017C125.92 65.3957 127.465 66.9406 127.465 68.8441C127.465 70.7476 125.92 72.2926 124.017 72.2926Z" fill="#F2ECBF"/>
<path d="M172.293 113.672H137.81C135.906 113.672 134.361 112.127 134.361 110.223C134.361 108.32 135.906 106.775 137.81 106.775H172.293C174.196 106.775 175.741 108.32 175.741 110.223C175.741 112.127 174.196 113.672 172.293 113.672Z" fill="#25AE88"/>
<path d="M124.017 113.672H113.672C111.768 113.672 110.223 112.127 110.223 110.223C110.223 108.32 111.768 106.775 113.672 106.775H124.017C125.92 106.775 127.465 108.32 127.465 110.223C127.465 112.127 125.92 113.672 124.017 113.672Z" fill="#DD352E"/>
<path d="M148.155 86.0855H113.672C111.768 86.0855 110.223 84.5406 110.223 82.6371C110.223 80.7336 111.768 79.1887 113.672 79.1887H148.155C150.058 79.1887 151.603 80.7336 151.603 82.6371C151.603 84.5406 150.058 86.0855 148.155 86.0855Z" fill="#75348B"/>
<path d="M172.293 86.0855H161.948C160.044 86.0855 158.499 84.5406 158.499 82.6371C158.499 80.7336 160.044 79.1887 161.948 79.1887H172.293C174.196 79.1887 175.741 80.7336 175.741 82.6371C175.741 84.5406 174.196 86.0855 172.293 86.0855Z" fill="#EBBA16"/>
<path d="M172.293 99.8789H137.81C135.906 99.8789 134.361 98.334 134.361 96.4305C134.361 94.527 135.906 92.9821 137.81 92.9821H172.293C174.196 92.9821 175.741 94.527 175.741 96.4305C175.741 98.334 174.196 99.8789 172.293 99.8789Z" fill="#ED8A19"/>
<path d="M124.017 99.8789H113.672C111.768 99.8789 110.223 98.334 110.223 96.4305C110.223 94.527 111.768 92.9821 113.672 92.9821H124.017C125.92 92.9821 127.465 94.527 127.465 96.4305C127.465 98.334 125.92 99.8789 124.017 99.8789Z" fill="#C5411E"/>
<path d="M99.8789 13.6719H13.6719V124.017H99.8789V13.6719Z" fill="#EBBA16"/>
<path d="M51.5996 113.672C51.0824 113.672 50.5547 113.555 50.0582 113.31C48.3547 112.458 47.6652 110.386 48.5168 108.682L58.8617 87.9926C59.7133 86.2891 61.7895 85.5996 63.4895 86.4512C65.193 87.3028 65.8824 89.3754 65.0309 91.0789L54.6859 111.768C54.0824 112.975 52.8652 113.672 51.5996 113.672Z" fill="white"/>
<path d="M27.4652 103.327C26.5824 103.327 25.6996 102.989 25.0273 102.317C23.6789 100.968 23.6789 98.7891 25.0273 97.441L35.3723 87.0961C36.7172 85.7477 38.9031 85.7477 40.2481 87.0961C41.5965 88.4445 41.5965 90.6238 40.2481 91.9719L29.9031 102.317C29.2305 102.989 28.3481 103.327 27.4652 103.327Z" fill="white"/>
<path d="M37.8098 113.672C36.927 113.672 36.0441 113.334 35.3719 112.662L25.0273 102.317C23.6789 100.968 23.6789 98.7891 25.0273 97.441C26.3723 96.0926 28.5582 96.0926 29.9031 97.441L40.2481 107.786C41.5965 109.134 41.5965 111.314 40.2481 112.662C39.5754 113.334 38.6926 113.672 37.8098 113.672Z" fill="white"/>
<path d="M86.0859 103.327C85.2031 103.327 84.3203 102.989 83.6481 102.317L73.3031 91.9719C71.9547 90.6234 71.9547 88.4442 73.3031 87.0961C74.6481 85.7477 76.834 85.7477 78.1789 87.0961L88.5238 97.441C89.8723 98.7895 89.8723 100.969 88.5238 102.317C87.8512 102.989 86.9688 103.327 86.0859 103.327Z" fill="white"/>
<path d="M75.741 113.672C74.8582 113.672 73.9754 113.334 73.3031 112.662C71.9547 111.313 71.9547 109.134 73.3031 107.786L83.6481 97.441C84.993 96.0926 87.1789 96.0926 88.5238 97.441C89.8723 98.7895 89.8723 100.969 88.5238 102.317L78.1789 112.662C77.5067 113.334 76.6238 113.672 75.741 113.672Z" fill="white"/>
<path d="M58.4996 55.0512C56.5961 55.0512 55.0512 53.5063 55.0512 51.6027V27.4649C55.0512 25.5613 56.5961 24.0164 58.4996 24.0164C60.4031 24.0164 61.9481 25.5613 61.9481 27.4649V51.6027C61.9481 53.5063 60.4031 55.0512 58.4996 55.0512Z" fill="white"/>
<path d="M58.4996 75.7406C56.5961 75.7406 55.0512 74.1957 55.0512 72.2922V65.3957C55.0512 63.4922 56.5961 61.9473 58.4996 61.9473C60.4031 61.9473 61.9481 63.4922 61.9481 65.3957V72.2922C61.9481 74.1961 60.4031 75.7406 58.4996 75.7406Z" fill="white"/>
</svg>
